<?xml version="1.0" encoding="utf-8"?>
<!-- Generator: Adobe Illustrator 26.2.1, SVG Export Plug-In . SVG Version: 6.00 Build 0)  -->
<svg version="1.1" id="Layer_1" xmlns="http://www.w3.org/2000/svg" xmlns:xlink="http://www.w3.org/1999/xlink" x="0px" y="0px"
	 viewBox="0 0 54.8 58.2" style="enable-background:new 0 0 54.8 58.2;" xml:space="preserve">
<style type="text/css">
	.st0{clip-path:url(#SVGID_00000057836579011778448900000013303187637115068299_);}
	.st1{fill:none;stroke:#FFFFFF;stroke-width:5;stroke-linecap:square;stroke-miterlimit:3;}
	.st2{fill:none;stroke:#FFFFFF;stroke-width:5;stroke-linecap:round;stroke-linejoin:round;stroke-miterlimit:3;}
	.st3{fill:none;stroke:#FFFFFF;stroke-width:5;stroke-linecap:round;stroke-miterlimit:3;}
</style>
<g>
	<defs>
		<rect id="SVGID_1_" x="10.1" y="2.7" width="40" height="51"/>
	</defs>
	<clipPath id="SVGID_00000071538855618873319250000008142989423619956396_">
		<use xlink:href="#SVGID_1_"  style="overflow:visible;"/>
	</clipPath>
	<g style="clip-path:url(#SVGID_00000071538855618873319250000008142989423619956396_);">
		<path class="st1" d="M16.8,35.6c-3.1-3.8-4.6-8.1-4.6-12.8c0-5,1.8-9.2,5.3-12.7c3.5-3.4,7.7-5.2,12.6-5.3
			c4.9,0.1,9.1,1.8,12.6,5.3c3.5,3.5,5.3,7.8,5.3,12.7c0,4.7-1.5,9-4.6,12.8l-6.9,8.2c0,0-1.1,0.3-1.6-0.3
			C34.6,43.3,25,31.1,25,31.1"/>
		<path class="st2" d="M23.9,29.7c-0.5-0.5-0.9-1.1-1.1-1.8c-0.2-0.7-0.3-1.4-0.2-2.1c0.1-1.5,0.7-2.7,1.8-3.7
			c1.1-0.9,2.4-1.3,3.8-1.2c0.9,0.1,1.6,0.3,2.3,0.7c0.5,0.3,0.9,0.6,1.3,1.1l5.7,6.6"/>
		<path class="st3" d="M30.1,50.7L16.8,35.6 M35.6,44.9L23.9,29.7L35.6,44.9z"/>
	</g>
</g>
</svg>
